<svg xmlns="http://www.w3.org/2000/svg" xmlns:xlink="http://www.w3.org/1999/xlink" viewBox="0 0 650 650"><defs><style>.cls-1{fill:url(#Безымянный_градиент_263);}.cls-17,.cls-18,.cls-19,.cls-2,.cls-20,.cls-23,.cls-24{opacity:0.5;}.cls-2{fill:url(#Безымянный_градиент_250);}.cls-3{fill:url(#Безымянный_градиент_123);}.cls-4{fill:#1A243D;}.cls-5{fill:url(#Безымянный_градиент_123-2);}.cls-6{fill:url(#Безымянный_градиент_250-2);}.cls-22,.cls-7{fill:none;stroke-miterlimit:10;}.cls-7{stroke:#fff;}.cls-8{fill:url(#Безымянный_градиент_250-3);}.cls-9{fill:url(#Безымянный_градиент_123-3);}.cls-10{fill:#39716A;}.cls-11{fill:url(#Безымянный_градиент_123-4);}.cls-12{fill:url(#Безымянный_градиент_123-5);}.cls-13{fill:url(#Безымянный_градиент_123-6);}.cls-14{fill:url(#Безымянный_градиент_48);}.cls-15{fill:url(#Безымянный_градиент_4);}.cls-16{fill:url(#Безымянный_градиент_4-2);}.cls-17{fill:url(#Безымянный_градиент_250-4);}.cls-18{fill:url(#Безымянный_градиент_250-5);}.cls-19{fill:url(#Безымянный_градиент_250-6);}.cls-20{fill:url(#Безымянный_градиент_250-7);}.cls-21{fill:#e9e8ee;}.cls-22{stroke:#e8e7ed;stroke-linecap:round;stroke-width:4px;}.cls-23{fill:url(#Безымянный_градиент_250-8);}.cls-24{fill:url(#Безымянный_градиент_250-9);}.cls-25{fill:#e8e7ed;}</style><linearGradient id="Безымянный_градиент_263" x1="16.2" y1="353.57" x2="642.71" y2="353.57" gradientUnits="userSpaceOnUse"><stop offset="0" stop-color="#f0f2f5"/><stop offset="1" stop-color="#f5f7f8"/></linearGradient><linearGradient id="Безымянный_градиент_250" x1="437.72" y1="153.79" x2="501.07" y2="153.79" gradientUnits="userSpaceOnUse"><stop offset="0" stop-color="#39716A"/><stop offset="0.4" stop-color="#39716A"/><stop offset="0.9" stop-color="#39716A"/></linearGradient><linearGradient id="Безымянный_градиент_123" x1="218.82" y1="577.48" x2="245.64" y2="577.48" gradientUnits="userSpaceOnUse"><stop offset="0" stop-color="#753200"/><stop offset="1" stop-color="#604133"/></linearGradient><linearGradient id="Безымянный_градиент_123-2" x1="-1732.07" y1="1550.09" x2="-1749.53" y2="1519.4" gradientTransform="matrix(-0.65, 0.76, 0.76, 0.65, -2009.75, 880.11)" xlink:href="#Безымянный_градиент_123"/><linearGradient id="Безымянный_градиент_250-2" x1="389.58" y1="574.95" x2="459.11" y2="574.95" gradientTransform="translate(-114.75)" xlink:href="#Безымянный_градиент_250"/><linearGradient id="Безымянный_градиент_250-3" x1="216.89" y1="589.81" x2="279.96" y2="589.81" xlink:href="#Безымянный_градиент_250"/><linearGradient id="Безымянный_градиент_123-3" x1="392.42" y1="142.2" x2="430.34" y2="142.2" xlink:href="#Безымянный_градиент_123"/><linearGradient id="Безымянный_градиент_123-4" x1="339.34" y1="175.96" x2="396.23" y2="175.96" xlink:href="#Безымянный_градиент_123"/><linearGradient id="Безымянный_градиент_123-5" x1="-420.8" y1="454.25" x2="-354.34" y2="423.49" gradientTransform="matrix(-0.96, 0.28, 0.28, 0.96, -195.16, -186.88)" xlink:href="#Безымянный_градиент_123"/><linearGradient id="Безымянный_градиент_123-6" x1="-351.93" y1="424.83" x2="-354.97" y2="427.81" gradientTransform="matrix(-0.96, 0.28, 0.28, 0.96, -195.16, -186.88)" xlink:href="#Безымянный_градиент_123"/><linearGradient id="Безымянный_градиент_48" x1="-351.81" y1="441.73" x2="-375.31" y2="464.79" gradientTransform="matrix(-0.96, 0.28, 0.28, 0.96, -195.16, -186.88)" gradientUnits="userSpaceOnUse"><stop offset="0" stop-color="#604133"/><stop offset="1" stop-color="#753200"/></linearGradient><linearGradient id="Безымянный_градиент_4" x1="232.53" y1="212.4" x2="343.74" y2="212.4" gradientUnits="userSpaceOnUse"><stop offset="0" stop-color="#1A243D"/><stop offset="1" stop-color="#1A243D"/></linearGradient><linearGradient id="Безымянный_градиент_4-2" x1="263.27" y1="185.61" x2="320.19" y2="185.61" xlink:href="#Безымянный_градиент_4"/><linearGradient id="Безымянный_градиент_250-4" x1="319.9" y1="174.7" x2="501.07" y2="174.7" xlink:href="#Безымянный_градиент_250"/><linearGradient id="Безымянный_градиент_250-5" x1="91.89" y1="226.13" x2="215.02" y2="226.13" xlink:href="#Безымянный_градиент_250"/><linearGradient id="Безымянный_градиент_250-6" x1="350.53" y1="338.12" x2="407.39" y2="338.12" xlink:href="#Безымянный_градиент_250"/><linearGradient id="Безымянный_градиент_250-7" x1="471.33" y1="338.12" x2="528.19" y2="338.12" xlink:href="#Безымянный_градиент_250"/><linearGradient id="Безымянный_градиент_250-8" x1="489.84" y1="262" x2="497.48" y2="262" gradientTransform="matrix(1, 0.04, -0.04, 1, 38.14, 23.92)" xlink:href="#Безымянный_градиент_250"/><linearGradient id="Безымянный_градиент_250-9" x1="489.84" y1="283.81" x2="497.48" y2="283.81" gradientTransform="matrix(1, 0.04, -0.04, 1, 38.14, 23.92)" xlink:href="#Безымянный_градиент_250"/></defs><title>1</title><g id="_01" data-name="01"><path class="cls-1" d="M 619.3 365.1 C 564.3 252.6 406.9 87.8 202.5 87.4 c -213.4 -0.4 -234 211.2 -119 270 S 30.3 489.6 150.5 563.2 c 121.7 74.6 381.7 67.6 445.7 9.6 S 643.1 413.6 619.3 365.1 Z"/><path class="cls-2" d="M 497.9 222.5 S 475.8 190 435.7 186.1 c 0 -27.2 1.2 -103.1 1.2 -103.1 s 62.5 4.9 62.1 23.2 S 497.9 222.5 497.9 222.5 Z"/><polygon class="cls-3" points="243.6,567.5 243.6,582.7 217.4,585.5 216.8,578.8 219.9,569.3 243.6,567.5"/><path class="cls-4" d="M 278 604.7 v 3.6 C 278 611.9 275.2 614.8 271.7 615.1 C 266 615.4 260.3 615.1 254.7 614.2 C 244 612.5 233.6 609.8 223.4 606.2 c -5.3 -1.8 -7.8 -1.8 -8.5 -4.8 s 0.2 -10.1 0.2 -10.1 l 31.2 7.1 Z"/><polygon class="cls-5" points="295.9,548 301,561.8 299.1,576.1 295.2,579.5 279.2,574.7 275.2,568.6 279.3,546.9 295.9,548"/><path class="cls-4" d="M 273 578.8 v 6.1 C 273 587.1 274.6 589 276.8 589.3 c 4.3 0.6 11.3 1.6 15 2.4 c 5.7 1.1 19.5 6.1 27.2 6.6 s 16.5 0.6 20.3 -1.9 s 3 -8.4 3 -8.4 Z"/><path class="cls-6" d="M 275.3 562.3 s -4 15.2 -1.8 17.5 s 19.1 3.4 23.6 6.2 s 22.8 7.4 32.6 6.6 s 12.5 -2 12.7 -4.6 s -19.3 -6.2 -22.8 -8.9 s -5.6 -11.9 -10.5 -15 s -1.1 -8.7 -6.2 -9 s -3.7 8 -11.4 8.5 C 286 563.8 280.6 563.4 275.3 562.3 Z"/><path class="cls-4" d="M 243.9 309.2 s -10 10 -9.5 33 s 6.5 80.5 2.5 98 s -13.5 43.5 -15.5 73 s -4 59.5 -4 59.5 h 29 s -5.5 -30.5 3 -51.5 s 18.5 -55 22.5 -65.5 C 274 450.4 275.8 444.9 277.4 439.4 s -7.5 75.9 -7.5 93.4 s 1 33 5.5 32.5 s 19.5 -7 21.5 -8.5 s 4.5 -26.5 4 -35.5 s 4 -58.5 4 -58.5 s 12.5 -38 16 -54.5 s 2.5 -85 2.5 -85 l -5.5 -11 Z"/><path class="cls-7" d="M 294.9 371.7 c -9.5 10 -17.5 69.3 -17.5 69.3"/><path class="cls-8" d="M 235.1 576.3 c 0.4 -0.3 0.8 -0.7 1.3 -1.2 c 3.1 -3 8 -8 11.7 -4.6 c 4.3 4 2.8 15.9 15.5 22.2 c 3.8 1.9 17.3 10.8 13.8 13.5 s -2.5 2.3 -21 1.5 s -41.5 -15 -41.5 -15 s 0.9 -18.8 2.5 -18.8 s -0.3 7 5 7.8 S 235.1 576.3 235.1 576.3 Z"/><path class="cls-9" d="M 428.1 130.6 c -0.1 0.7 -2.8 0.9 -6.5 1.5 s -4.6 2.5 -6 3.4 s -2.3 2.9 -1.2 3.4 s 5.7 -3.4 6.9 -3.4 s 2.4 1.6 2.5 2.3 s 2 2.8 2.4 4.6 C 426.2 142.9 426.1 143.4 425.8 143.8 C 425.5 144.2 425 144.4 424.5 144.5 V 147 c 0 1.8 -2.6 3.9 -3 4.1 s -1.9 -0.5 -2.5 -1.8 s -2.7 3 -2.7 3 s -4 4.6 -5.5 7.8 c -1 2.2 -4.4 5.1 -6.5 6.6 C 399.5 165.8 394.8 164.2 390.4 162.1 c 0.5 -2.8 1.7 -8.9 1.5 -11 C 391.9 148.5 393.1 146.1 395.2 144.6 s 1.4 -7 1.7 -7.2 s 0.8 -5.7 0 -7.6 s 0.7 -2.4 1.4 -2.3 C 400.1 128.4 401.5 129.8 402.5 131.5 c 0.8 -1.1 2.5 -3.4 2.9 -4.1 c 0.5 -1 6.3 -7 6.8 -7.7 s 4.5 -5.3 7 -3.5 c 1.3 0.9 -1.5 4 -3 5.9 s -8.6 12.4 -7.5 12.6 s 5.5 -4.8 6.9 -5.6 C 416.4 128.2 417.6 127.7 418.8 127.6 C 421.5 127.3 424.3 127.3 427 127.6 C 428.9 127.8 428.3 129.8 428.1 130.6 Z"/><path class="cls-10" d="M 405.4 166.9 c -1.3 17.3 -10.7 56.3 -19.3 66.3 s -58 -7 -58 -7 s 4.8 96.7 -7.9 97 s -79.8 -8 -79.8 -8 s 4.3 -28.7 5.2 -44.3 s -17 -67 -19.6 -77.2 s 0.3 -22 5 -26.3 s 28.7 -9.5 32.6 -9.9 c 31 -3.1 49.3 19.2 54.1 22.2 c 9.2 -1.8 19.3 -4 19.3 -4 l 0.2 1 l 3 14.5 l 1 5 c 11.2 5.1 27.7 9.3 27.7 9.3 l 7.1 -15.4 l 2.4 -5.1 l 7.8 -16.8 l 3.1 -6.7 s 0.4 0.2 1 0.5 l 1 0.5 C 395.5 164.4 399.8 165.8 404.3 166.7 Z"/><path class="cls-11" d="M 390.1 163.5 c -0.8 0 3.5 1.4 0.3 3.6 C 389.1 167.8 387.7 168.2 386.3 168.3 c -4.1 0.4 -9.3 -0.3 -10.5 0.1 c -1.8 0.5 -14 9 -12.9 14.8 c 3.2 0 12.5 -0.5 15.7 1.9 C 379.2 185.5 379.6 186.2 379.6 187 c 0.1 2.1 -1.5 2.9 -3.4 3.2 C 374 190.3 371.8 190.2 369.6 189.8 c -2.4 -0.3 -6.6 -0.9 -8.1 0.5 s -6.9 3.3 -10.9 1.5 c -2.7 -1.2 -7.5 -0.9 -10.3 -0.6 l -3 -14.5 c 3.8 -1.8 10.3 -4.9 12 -5.9 c 2.5 -1.4 11.4 -5.5 13.6 -6.6 s 11 -4.6 12.5 -5.1 s 16.8 -2.3 18.4 -1.4 c 1.2 0.6 -0.9 3.4 -2.5 4.8 C 391 163 390.6 163.3 390.1 163.5 Z"/><path class="cls-12" d="M 266.9 162.2 c -0.2 -1.8 -0.7 -6.5 -1.5 -12 c -0.6 -3.8 -1.1 -7.7 -1.6 -10.7 c 0 -0.3 -0.1 -0.5 -0.1 -0.8 C 263.4 137.2 263.1 135.6 262.6 134 l -0.3 -0.3 c -7.2 -7.2 -8 -13 -5.3 -15.8 C 257.5 117.6 257.9 117.3 258.3 117 h 0 s -4.4 -10.5 -2.5 -20.5 C 258.3 83.3 275 78.3 286 78.4 s 23.5 9.7 23.2 22 c -0.1 4.9 -1 9.6 -0.3 13.8 s 4.3 10.6 3.1 18.1 c -1.8 10.8 -11.3 16.4 -17.7 18.2 C 293.5 150.7 292.7 150.9 291.8 151 l 0.2 1.8 l 0.2 1.5 l 0.2 1.6 C 292.7 157.4 292.8 158.8 292.7 160.3 C 291.7 165.5 287.5 169.5 282.2 169.9 C 272.9 171.1 267.4 166.7 266.9 162.2 Z"/><path class="cls-13" d="M 263 121.6 s -2.7 -2.8 -4 -0.2 s 1.8 6.4 1.8 6.4 Z"/><path class="cls-4" d="M 267.6 126.5 l 0.4 3 c 7.7 1.9 25.8 8.3 28.8 7.9 c 3.8 -0.5 3.8 -5 6 -4.6 s 2.7 3 4 2.6 c 0.7 -0.2 4.5 -4.2 5.5 -6.4 c 0 0 -0.3 7.8 -0.4 9.2 c -0.3 3.2 -5.4 11 -5.4 11 C 305.9 150.1 305 150.7 304.1 150.9 l -8.8 1.5 l -5 -1.2 c -6.9 -1.5 -24.3 -10 -24.8 -11.8 C 264.5 136.2 263.9 132.9 263.7 129.6 Z"/><path class="cls-14" d="M 263.8 140.1 C 270.7 148.9 281.1 154.3 292.3 154.8 l -0.2 -1.5 l -0.2 -1.8 c -8 -1.8 -17.8 -6.6 -29.5 -17.3 l 0.3 0.3 C 263.1 136.1 263.5 137.7 263.7 139.3 C 263.7 139.6 263.8 139.8 263.8 140.1 Z"/><path class="cls-15" d="M 260.9 220.4 c -5.4 0.3 -30.3 -16.9 -30.3 -16.9 s 19.3 20.3 28.6 22.5 s 82.6 -29.3 82.6 -29.3 S 266.3 220 260.9 220.4 Z"/><path class="cls-16" d="M 261.3 181.2 s 2.3 7 4.5 7.8 s 36.7 -6 46.9 -7.8 c 1.8 -0.3 3.6 -0.7 5.6 -1 l -49.7 5.2 l -7.2 -5.2"/><path class="cls-17" d="M 317.9 129.1 V 231.3 s 94.9 27 180 -8.8 c 0 -56.8 1.2 -116.2 1.2 -116.2 C 471.3 153.4 317.9 129.1 317.9 129.1 Z"/><polygon class="cls-18" points="213,295.5 89.9,274.8 89.9,154.8 213,162.6 213,295.5"/><polygon class="cls-19" points="405.4,368.1 348.5,382.6 348.5,301.7 405.4,291.6 405.4,368.1"/><polygon class="cls-20" points="526.2,368.1 469.3,382.6 469.3,301.7 526.2,291.6 526.2,368.1"/><polygon class="cls-21" points="114.9,267.2 100.2,264.7 100.2,187.7 114.9,189.2 114.9,267.2"/><polygon class="cls-21" points="141.8,271.9 126.4,269.2 126.4,215.6 141.8,217.5 141.8,271.9"/><polygon class="cls-21" points="170.2,276.8 154,274 154,202.2 170.2,203.9 170.2,276.8"/><polygon class="cls-21" points="200.1,282 183,279.1 183,179 200.1,180.4 200.1,282"/><polyline class="cls-22" points="326.9,217.5 340.1,193.4 360.3,217.5 388.5,174.3 407.4,217.5 418.3,195.9 431.6,206.6 452.9,155.3"/><path class="cls-21" d="M 518 312.4 l -9 2.2 c -2.4 0.6 -4.3 -1.8 -4.1 -5.4 h 0 c 0.2 -3.6 2.3 -6.9 4.7 -7.4 l 9 -1.9 c 2.3 -0.5 4 1.9 3.9 5.4 h 0 C 522.3 308.6 520.3 311.8 518 312.4 Z"/><path class="cls-23" d="M 521.8 305.2 c -0.1 3.2 -2 6.2 -4.1 6.7 s -3.8 -1.7 -3.6 -4.9 s 2 -6.2 4.1 -6.7 S 522 302.1 521.8 305.2 Z"/><path class="cls-21" d="M 517.1 334.1 l -9 2.6 c -2.4 0.7 -4.3 -1.6 -4.1 -5.2 h 0 c 0.2 -3.6 2.3 -7 4.7 -7.7 l 9 -2.4 c 2.3 -0.6 4 1.7 3.9 5.2 h 0 C 521.4 330.1 519.4 333.5 517.1 334.1 Z"/><path class="cls-24" d="M 520.9 326.8 c -0.1 3.2 -2 6.2 -4.1 6.9 s -3.8 -1.5 -3.6 -4.7 s 2 -6.3 4.2 -6.9 S 521 323.7 520.9 326.8 Z"/><path class="cls-25" d="M 443.9 110.4 C 443.9 118.4 450.4 124.9 458.4 124.9 v -4 C 453.4 121 449.1 117.6 448.1 112.7 C 447 107.9 449.4 103 453.9 100.9 l -1.3 -3.8 C 447.3 99.4 443.9 104.6 443.9 110.4 Z"/><path class="cls-25" d="M 468.8 109.9 c 0 0.2 0 0.4 0 0.5 C 468.8 111.5 468.7 112.6 468.3 113.7 l 3.9 0.8 C 472.6 113.3 472.8 112.1 472.8 110.8 Z"/><path class="cls-25" d="M 472.9 110.4 C 472.8 102.5 466.3 96 458.4 96 v 4 C 463.9 100 468.5 104.4 468.8 109.9 l 4 1 C 472.8 110.7 472.9 110.6 472.9 110.4 Z"/><line class="cls-22" x1="357.54" y1="310.23" x2="401.2" y2="303.12"/><line class="cls-22" x1="357.54" y1="322.73" x2="401.2" y2="315.18"/><line class="cls-22" x1="357.54" y1="335.23" x2="401.2" y2="327.25"/><line class="cls-22" x1="357.54" y1="347.73" x2="401.2" y2="339.32"/><line class="cls-22" x1="357.54" y1="360.23" x2="401.2" y2="351.38"/><line class="cls-22" x1="357.54" y1="372.73" x2="401.2" y2="363.45"/><line class="cls-22" x1="477.2" y1="308.78" x2="490.93" y2="306.67"/><line class="cls-22" x1="477.2" y1="317.92" x2="494.4" y2="315.03"/><line class="cls-22" x1="477.2" y1="327.05" x2="497.86" y2="323.39"/><line class="cls-22" x1="477.2" y1="336.19" x2="501.33" y2="331.75"/><line class="cls-22" x1="477.2" y1="345.32" x2="504.79" y2="340.1"/><line class="cls-22" x1="477.2" y1="354.46" x2="508.25" y2="348.46"/><line class="cls-22" x1="477.2" y1="363.6" x2="511.72" y2="356.82"/><line class="cls-22" x1="477.2" y1="372.73" x2="515.18" y2="365.18"/></g></svg>