<svg width="5565" height="2522.9823" xmlns="http://www.w3.org/2000/svg" clip-rule="evenodd">
 <metadata id="metadata174">image/svg+xml</metadata>
 <defs>
  <style type="text/css">
   <![CDATA[
    .fil8 {fill:#2B254C}
    .fil9 {fill:#564F89}
    .fil1 {fill:#72364A}
    .fil3 {fill:#91606A}
    .fil10 {fill:#A099BB}
    .fil2 {fill:#C83337}
    .fil5 {fill:#222124;fill-rule:nonzero}
    .fil0 {fill:#544E88;fill-rule:nonzero}
    .fil7 {fill:#554F8A;fill-rule:nonzero}
    .fil11 {fill:#564F89;fill-rule:nonzero}
    .fil4 {fill:#72364A;fill-rule:nonzero}
    .fil6 {fill:#F0523C;fill-rule:nonzero}
   ]]>
  </style>
 </defs>
 <g>
  <title>background</title>
  <rect fill="#ffffff" id="canvas_background" height="2524.9823" width="5567" y="-1" x="-1"/>
 </g>
 <g>
  <title>Layer 1</title>
  <g id="Layer_x0020_1">
   <metadata transform="translate(-1010,-907.0154418945312) " id="CorelCorpID_0Corel-Layer"/>
   <path fill="#544e88" fill-rule="nonzero" id="path7" d="m28,27.98456l0,2467l5509,0l0,-2467l-5509,0zm-28,2495l0,-2523l5565,0l0,2523l-5565,0z" class="fil0"/>
   <polygon fill="#544e88" fill-rule="nonzero" id="polygon9" points="5193,1772.9845581054688 372,1772.9845581054688 372,1783.9845581054688 5193,1783.9845581054688 " class="fil0"/>
   <path fill="#544e88" fill-rule="nonzero" id="path11" d="m2101,2110.98456c0,16 3,28 8,36c5,8 13,12 24,12c10,0 18,-4 24,-12c5,-8 8,-20 8,-36c0,-16 -3,-28 -8,-37c-5,-8 -13,-13 -24,-13c-10,0 -18,4 -24,13c-5,8 -8,21 -8,37zm-27,0c0,-23 5,-41 16,-54c10,-13 25,-19 43,-19c18,0 33,6 43,19c10,13 16,31 16,54c0,23 -5,41 -16,53c-10,13 -25,19 -43,19c-18,0 -33,-6 -43,-19c-10,-13 -16,-31 -16,-53z" class="fil0"/>
   <path fill="#544e88" fill-rule="nonzero" id="path13" d="m2208,2181.98456l0,-141l28,0l41,71c3,6 6,11 9,17c3,6 5,11 7,17c-1,-4 -1,-9 -2,-13c0,-5 0,-10 0,-15l0,-76l25,0l0,141l-25,0l-44,-73c-2,-4 -5,-9 -8,-15c-3,-6 -5,-12 -8,-19c1,4 1,8 1,13c0,5 0,10 0,16l0,78l-25,0l1,-1z" class="fil0"/>
   <path fill="#544e88" fill-rule="nonzero" id="path15" d="m2421,2159.98456l22,0c10,0 17,-2 21,-5c4,-3 7,-9 7,-16c0,-7 -2,-12 -7,-15c-4,-3 -11,-5 -20,-5l-23,0l0,42l0,-1zm0,-63l22,0c8,0 14,-1 19,-4c4,-3 6,-7 6,-13c0,-6 -2,-10 -6,-13c-4,-3 -11,-4 -20,-4l-20,0l0,35l-1,-1zm-26,85l0,-141l51,0c15,0 27,3 35,10c8,6 12,16 12,28c0,7 -2,13 -5,17c-3,5 -9,9 -16,12c8,3 14,7 18,13c4,6 6,13 6,22c0,13 -4,23 -13,30c-9,7 -22,10 -39,10l-50,0l1,-1z" class="fil0"/>
   <polygon fill="#544e88" fill-rule="nonzero" id="polygon17" points="2611,2039.9845581054688 2611,2062.9845581054688 2546,2062.9845581054688 2546,2096.9845581054688 2593,2096.9845581054688 2593,2118.9845581054688 2546,2118.9845581054688 2546,2157.9845581054688 2614,2157.9845581054688 2614,2181.9845581054688 2519,2181.9845581054688 2519,2039.9845581054688 " class="fil0"/>
   <polygon fill="#544e88" fill-rule="nonzero" id="polygon19" points="2657,2039.9845581054688 2657,2095.9845581054688 2710,2095.9845581054688 2710,2039.9845581054688 2737,2039.9845581054688 2737,2181.9845581054688 2710,2181.9845581054688 2710,2119.9845581054688 2657,2119.9845581054688 2657,2181.9845581054688 2630,2181.9845581054688 2630,2039.9845581054688 " class="fil0"/>
   <path fill="#544e88" fill-rule="nonzero" id="path21" d="m2789,2127.98456l36,0l-18,-63l-18,63zm-41,53l43,-141l33,0l43,141l-27,0l-9,-31l-49,0l-9,31l-25,0z" class="fil0"/>
   <polygon fill="#544e88" fill-rule="nonzero" id="polygon23" points="2905,2039.9845581054688 2905,2157.9845581054688 2964,2157.9845581054688 2964,2181.9845581054688 2878,2181.9845581054688 2878,2039.9845581054688 " class="fil0"/>
   <polygon fill="#544e88" fill-rule="nonzero" id="polygon25" points="3068,2039.9845581054688 3068,2062.9845581054688 3005,2062.9845581054688 3005,2096.9845581054688 3053,2096.9845581054688 3053,2119.9845581054688 3005,2119.9845581054688 3005,2181.9845581054688 2979,2181.9845581054688 2979,2039.9845581054688 " class="fil0"/>
   <path fill="#544e88" fill-rule="nonzero" id="path27" d="m3155,2110.98456c0,16 3,28 8,36c5,8 13,12 24,12c10,0 18,-4 24,-12c5,-8 8,-20 8,-36c0,-16 -3,-28 -8,-37c-5,-8 -13,-13 -24,-13c-10,0 -18,4 -24,13c-5,8 -8,21 -8,37zm-27,0c0,-23 5,-41 16,-54c10,-13 25,-19 43,-19c18,0 33,6 43,19c10,13 16,31 16,54c0,23 -5,41 -16,53c-10,13 -25,19 -43,19c-18,0 -33,-6 -43,-19c-10,-13 -16,-31 -16,-53z" class="fil0"/>
   <polygon fill="#544e88" fill-rule="nonzero" id="polygon29" points="3352,2039.9845581054688 3352,2062.9845581054688 3290,2062.9845581054688 3290,2096.9845581054688 3337,2096.9845581054688 3337,2119.9845581054688 3290,2119.9845581054688 3290,2181.9845581054688 3263,2181.9845581054688 3263,2039.9845581054688 " class="fil0"/>
   <path fill="#72364a" id="path31" d="m3680,2224.98456c47,18 99,0 127,-36c-24,24 -63,37 -98,23c-53,-21 -72,-64 -57,-112c15,-47 61,-76 112,-60c36,12 61,42 67,76c-3,-45 -35,-87 -83,-103c-62,-20 -128,12 -147,70c-19,58 18,119 79,142z" class="fil1"/>
   <path fill="#c83337" id="path33" d="m3789,2107.98456c4,53 -37,100 -90,103c-39,3 -75,-20 -93,-52c20,44 67,76 118,73c66,-4 115,-61 111,-127c-4,-65 -50,-50 -47,3l1,0z" class="fil2"/>
   <path fill="#72364a" id="path35" d="m3674,2270.98456c68,-3 124,-49 143,-110c-19,44 -61,76 -113,79c-70,3 -130,-52 -134,-122c-3,-70 52,-130 122,-134c51,-2 97,26 119,68c-25,-59 -85,-100 -152,-97c-87,4 -154,78 -151,164c4,87 78,154 164,151l2,1z" class="fil1"/>
   <path fill="#91606a" id="path37" d="m3848,2093.98456c-1,-29 -11,-49 -21,-68c-5,7 -9,13 -13,18c-23,-33 -62,-53 -105,-50c-51,3 -93,39 -106,85c13,-34 45,-59 84,-61c115,0 105,107 75,153c-25,41 -67,72 -112,74c-55,2 -104,-28 -128,-75c25,65 91,110 164,106c94,-4 167,-86 163,-182l-1,0z" class="fil3"/>
   <path fill="#c83337" id="path39" d="m3854,2156.98456c2,-11 3,-24 4,-36c0,-96 -78,-175 -175,-175c-84,0 -155,59 -170,138c20,-61 73,-105 136,-105c80,0 144,71 144,159c0,17 -10,145 107,133c-8,-2 -63,-2 -46,-113l0,-1z" class="fil2"/>
   <polygon fill="#72364a" fill-rule="nonzero" id="polygon41" points="4238,2005.9845581054688 4193,2069.9845581054688 4148,2005.9845581054688 4111,2005.9845581054688 4174,2093.9845581054688 4129,2155.9845581054688 4144,2185.9845581054688 4192,2117.9845581054688 4240,2185.9845581054688 4277,2185.9845581054688 4211,2093.9845581054688 4253,2035.9845581054688 4238,2005.9845581054688 " class="fil4"/>
   <path fill="#72364a" fill-rule="nonzero" id="path43" d="m4064,2114.98456l-80,0l40,-80l40,80zm-25,-109l-30,0l-93,181l32,0l23,-45l107,0l22,45l32,0l-93,-181z" class="fil4"/>
   <polygon fill="#72364a" fill-rule="nonzero" id="polygon45" points="4427,2105.9845581054688 4427,2078.9845581054688 4316,2078.9845581054688 4316,2031.9845581054688 4449,2031.9845581054688 4449,2005.9845581054688 4287,2005.9845581054688 4287,2185.9845581054688 4452,2185.9845581054688 4452,2159.9845581054688 4316,2159.9845581054688 4316,2105.9845581054688 " class="fil4"/>
   <polygon fill="#72364a" fill-rule="nonzero" id="polygon47" points="4462,2005.9845581054688 4462,2185.9845581054688 4627,2185.9845581054688 4627,2159.9845581054688 4490,2159.9845581054688 4490,2005.9845581054688 " class="fil4"/>
   <path fill="#72364a" fill-rule="nonzero" id="path49" d="m4719,2163.98456c-48,0 -76,-27 -76,-71c0,-39 31,-67 76,-67c45,0 76,27 76,67c0,52 -39,71 -76,71zm0,-163c-63,0 -105,38 -105,96c0,64 55,94 105,94c51,0 105,-29 105,-94c0,-57 -42,-96 -105,-96z" class="fil4"/>
   <path fill="#72364a" fill-rule="nonzero" id="path51" d="m4918,2078.98456c-38,-3 -61,-7 -61,-26c0,-24 35,-27 55,-27c43,0 59,19 67,28l4,4l21,-17l-2,-3c-6,-9 -31,-37 -89,-37c-55,0 -85,20 -85,56c0,41 46,46 87,50c33,3 64,6 64,27c0,23 -32,31 -59,31c-50,0 -66,-21 -75,-34l-2,-3l-19,16l-3,3l3,3c15,16 37,41 95,41c67,0 91,-33 91,-60c0,-46 -48,-47 -90,-51l-2,-1z" class="fil4"/>
   <path fill="#222124" fill-rule="nonzero" id="path53" d="m700,2038.98456c0,-14 -4,-24 -12,-31c-8,-7 -19,-10 -32,-10l-55,0l0,82l56,0c7,0 13,-1 19,-4c5,-2 10,-6 13,-10c4,-4 6,-8 8,-13c2,-5 3,-10 3,-15l0,1zm30,1c0,8 -2,16 -5,24c-3,8 -8,15 -14,21c-6,6 -13,11 -22,15c-9,4 -19,6 -30,6l-59,0l0,91l-29,0l0,-225l83,0c9,0 18,1 27,4c9,3 17,7 24,12c7,6 13,13 17,21c4,9 6,19 6,31l2,0z" class="fil5"/>
   <path fill="#222124" fill-rule="nonzero" id="path55" d="m804,2059.98456c-11,0 -20,4 -27,11c-7,8 -10,18 -11,32l75,0c-1,-14 -4,-25 -11,-33c-7,-7 -16,-11 -27,-11l1,1zm-38,66l0,3c0,6 1,12 3,18c2,6 4,11 8,15c3,4 8,8 13,10c5,2 11,4 18,4c5,0 11,-1 18,-4c7,-3 13,-6 18,-11l17,19c-8,7 -16,12 -26,16c-10,3 -19,5 -29,5c-8,0 -16,-1 -24,-3c-8,-2 -15,-6 -22,-12c-6,-6 -12,-14 -16,-25c-4,-11 -6,-24 -6,-41c0,-16 2,-29 6,-40c4,-11 9,-19 16,-26c6,-6 14,-11 22,-14c8,-3 16,-4 23,-4c9,0 17,2 25,5c8,3 15,8 20,14c6,6 10,13 14,22c3,9 5,19 5,30l0,21l-103,0l0,-2z" class="fil5"/>
   <path fill="#222124" fill-rule="nonzero" id="path57" d="m957,2058.98456c-8,0 -15,2 -21,6c-6,4 -11,10 -14,17c-2,5 -4,10 -5,16c-1,6 -1,12 -1,20c0,7 0,14 1,19c1,6 2,11 4,16c3,7 7,12 13,16c6,4 13,6 21,6c9,0 16,-2 23,-7c7,-5 12,-12 15,-22c1,-4 2,-8 2,-13c0,-5 0,-12 0,-20c0,-6 0,-12 -1,-17c-1,-5 -2,-9 -3,-13c-3,-8 -8,-14 -14,-18c-6,-4 -13,-6 -20,-6zm1,-24c12,0 22,2 31,7c9,5 16,11 22,20c4,6 6,13 8,21c2,8 3,18 3,28c0,14 -1,25 -2,35c-2,9 -4,17 -8,23c-6,10 -13,17 -23,22c-10,5 -21,8 -34,8c-12,0 -22,-2 -31,-6c-9,-4 -16,-10 -22,-18c-4,-7 -7,-15 -9,-24c-2,-9 -3,-20 -3,-33c0,-9 1,-17 2,-25c1,-8 3,-15 6,-21c5,-12 13,-21 24,-27c10,-6 23,-9 37,-9l-1,-1z" class="fil5"/>
   <path fill="#222124" fill-rule="nonzero" id="path59" d="m1071,2116.98456c0,6 0,12 1,19c1,7 2,13 5,18c2,5 6,10 11,13c5,3 11,5 19,5c8,0 15,-2 20,-5c5,-3 9,-8 11,-13c3,-5 4,-11 5,-18c1,-7 1,-13 1,-20c0,-6 0,-13 -1,-19c-1,-7 -2,-13 -5,-18c-2,-6 -6,-10 -11,-13c-5,-3 -11,-5 -20,-5c-8,0 -15,2 -20,6c-5,4 -9,8 -11,14c-3,6 -5,12 -5,18c-1,7 -1,13 -1,19l1,-1zm0,-81l0,18l1,0c6,-7 13,-12 21,-15c7,-3 15,-5 23,-5c11,0 21,2 28,7c7,5 13,11 18,18c4,8 7,16 9,26c2,10 2,19 2,29c0,10 -1,21 -3,31c-2,10 -5,19 -10,27c-5,8 -11,14 -19,19c-8,5 -18,7 -31,7c-8,0 -15,-1 -22,-4c-7,-3 -12,-7 -17,-12l-1,0l0,78l-27,0l0,-225l27,0l1,1z" class="fil5"/>
   <path fill="#222124" fill-rule="nonzero" id="path61" d="m1237,2196.98456c-12,0 -21,-3 -28,-8c-7,-6 -11,-15 -11,-29l0,-198l27,0l0,196c0,10 6,15 17,15l8,0l0,24l-11,0l-2,0z" class="fil5"/>
   <path fill="#222124" fill-rule="nonzero" id="path63" d="m1324,2059.98456c-11,0 -20,4 -27,11c-7,8 -10,18 -11,32l75,0c-1,-14 -4,-25 -11,-33c-7,-7 -16,-11 -27,-11l1,1zm-38,66l0,3c0,6 1,12 3,18c2,6 4,11 8,15c3,4 8,8 13,10c5,2 11,4 18,4c5,0 11,-1 18,-4c7,-3 13,-6 18,-11l17,19c-8,7 -16,12 -26,16c-10,3 -19,5 -29,5c-8,0 -16,-1 -24,-3c-8,-2 -15,-6 -22,-12c-6,-6 -12,-14 -16,-25c-4,-11 -6,-24 -6,-41c0,-16 2,-29 6,-40c4,-11 9,-19 16,-26c6,-6 14,-11 22,-14c8,-3 16,-4 23,-4c9,0 17,2 25,5c8,3 15,8 20,14c6,6 10,13 14,22c3,9 5,19 5,30l0,21l-103,0l0,-2z" class="fil5"/>
   <path fill="#f0523c" fill-rule="nonzero" id="path65" d="m1573,2150.98456c-6,15 -15,27 -28,35c-13,8 -28,13 -47,13c-13,0 -25,-2 -35,-7c-10,-5 -18,-11 -25,-18c-7,-8 -12,-16 -15,-27c-3,-10 -5,-21 -5,-32l0,-62c0,-11 2,-22 5,-32c3,-10 8,-19 15,-27c7,-8 15,-14 25,-18c10,-5 22,-7 35,-7c18,0 34,4 46,13c13,9 22,20 28,35l-27,12c-4,-10 -10,-17 -17,-23c-8,-6 -18,-9 -29,-9c-9,0 -17,2 -23,5c-6,3 -12,8 -16,13c-4,5 -8,11 -10,18c-2,7 -3,14 -3,21l0,59c0,8 1,15 3,22c2,7 5,13 10,19c4,5 10,10 16,13c6,3 14,5 23,5c12,0 22,-3 30,-9c8,-6 14,-14 18,-24l27,13l-1,-1z" class="fil6"/>
   <path fill="#f0523c" fill-rule="nonzero" id="path67" d="m1648,2059.98456c-11,0 -20,4 -27,11c-7,8 -10,18 -11,32l75,0c-1,-14 -4,-25 -11,-33c-7,-7 -16,-11 -27,-11l1,1zm-38,66l0,3c0,6 1,12 3,18c2,6 4,11 8,15c3,4 8,8 13,10c5,2 11,4 18,4c5,0 11,-1 18,-4c7,-3 13,-6 18,-11l17,19c-8,7 -16,12 -26,16c-10,3 -19,5 -29,5c-8,0 -16,-1 -24,-3c-8,-2 -15,-6 -22,-12c-6,-6 -12,-14 -16,-25c-4,-11 -6,-24 -6,-41c0,-16 2,-29 6,-40c4,-11 9,-19 16,-26c6,-6 14,-11 22,-14c8,-3 16,-4 23,-4c9,0 17,2 25,5c8,3 15,8 20,14c6,6 10,13 14,22c3,9 5,19 5,30l0,21l-103,0l0,-2z" class="fil6"/>
   <path fill="#f0523c" fill-rule="nonzero" id="path69" d="m1820,2066.98456c-6,-4 -14,-6 -23,-6c-11,0 -19,3 -26,10c-7,6 -10,16 -10,29l0,97l-27,0l0,-161l27,0l0,20l1,0c6,-8 12,-14 19,-17c7,-3 15,-5 23,-5c6,0 11,1 16,2c5,1 9,3 12,5l-11,26l-1,0z" class="fil6"/>
   <path fill="#f0523c" fill-rule="nonzero" id="path71" d="m1898,2196.98456c-11,0 -20,-3 -27,-10c-7,-6 -10,-16 -10,-28l0,-100l-19,0l0,-23l19,0l0,-40l27,0l0,40l25,0l0,23l-25,0l0,93c0,5 1,10 3,14c2,4 6,6 13,6l14,0l0,24l-19,0l-1,1z" class="fil6"/>
   <path fill="#554f8a" fill-rule="nonzero" id="path73" d="m2023,931.98456l-80,213l158,0l-78,-213zm125,341l-34,-91l-185,0l-34,91l-48,0l156,-403l38,0l155,403l-48,0z" class="fil7"/>
   <path fill="#554f8a" fill-rule="nonzero" id="path75" d="m2491,1229.98456c-30,31 -69,46 -113,46c-42,0 -80,-15 -108,-42c-40,-38 -40,-77 -40,-163c0,-85 0,-125 40,-163c28,-27 66,-42 108,-42c81,0 135,50 148,120l-45,0c-12,-51 -50,-82 -103,-82c-28,0 -55,11 -73,29c-27,26 -30,53 -30,137c0,84 3,112 30,138c18,18 45,28 73,28c31,0 61,-12 80,-35c17,-20 24,-42 24,-73l0,-31l-104,0l0,-38l149,0l0,64c0,46 -10,77 -36,104l0,3z" class="fil7"/>
   <polygon fill="#554f8a" fill-rule="nonzero" id="polygon77" points="2654,869.9845581054688 2609,869.9845581054688 2609,1272.9845581054688 2654,1272.9845581054688 " class="fil7"/>
   <polygon fill="#554f8a" fill-rule="nonzero" id="polygon79" points="2781,869.9845581054688 2781,1233.9845581054688 2997,1233.9845581054688 2997,1272.9845581054688 2736,1272.9845581054688 2736,869.9845581054688 " class="fil7"/>
   <polygon fill="#554f8a" fill-rule="nonzero" id="polygon81" points="3314,869.9845581054688 3314,908.9845581054688 3096,908.9845581054688 3096,1050.9845581054688 3281,1050.9845581054688 3281,1088.9845581054688 3096,1088.9845581054688 3096,1233.9845581054688 3314,1233.9845581054688 3314,1272.9845581054688 3051,1272.9845581054688 3051,869.9845581054688 " class="fil7"/>
   <path fill="#2b254c" id="path83" d="m1313,783.98456c99,38 207,-1 268,-75c-50,51 -132,78 -206,48c-112,-45 -151,-135 -119,-235c32,-99 129,-160 235,-126c76,24 129,88 140,159c-6,-95 -74,-184 -175,-216c-130,-42 -269,24 -308,147c-39,122 39,249 166,298l-1,0z" class="fil8"/>
   <path fill="#564f89" id="path85" d="m1542,537.98456c8,112 -77,209 -189,217c-81,5 -157,-42 -194,-109c42,93 141,160 248,152c138,-9 242,-129 233,-267c-9,-138 -105,-105 -98,7z" class="fil9"/>
   <path fill="#2b254c" id="path87" d="m1302,880.98456c142,-6 260,-102 301,-230c-39,93 -129,160 -236,165c-148,7 -274,-109 -281,-257c-7,-148 109,-274 257,-281c107,-5 203,55 250,144c-52,-124 -178,-209 -320,-203c-182,8 -324,163 -316,345c8,182 163,324 345,316l0,1z" class="fil8"/>
   <path fill="#a099bb" id="path89" d="m1666,508.98456c-3,-61 -23,-103 -44,-143c-10,14 -19,27 -27,38c-49,-69 -131,-111 -221,-105c-107,7 -195,82 -223,180c28,-71 95,-124 176,-129c241,0 220,225 158,322c-53,86 -140,150 -236,155c-116,5 -218,-59 -269,-158c53,136 191,230 345,224c198,-9 351,-180 343,-382l-2,-2z" class="fil10"/>
   <path fill="#564f89" id="path91" d="m1679,640.98456c3,-24 7,-50 8,-76c0,-203 -164,-367 -367,-367c-176,0 -325,124 -358,289c42,-129 153,-222 285,-222c167,0 303,149 303,333c0,36 -20,304 225,279c-16,-5 -133,-4 -96,-236z" class="fil9"/>
   <path fill="#564f89" fill-rule="nonzero" id="path93" d="m1914,521.98456l156,0c89,0 106,-23 106,-59c0,-37 -18,-60 -106,-60l-156,0l0,119zm0,222l-64,0l0,-400l233,0c104,0 157,40 157,118c0,79 -53,119 -157,119l-168,0l0,163l-1,0z" class="fil11"/>
   <path fill="#564f89" fill-rule="nonzero" id="path95" d="m2350,515.98456l155,0c78,0 108,-15 108,-57c0,-41 -29,-56 -108,-56l-155,0l0,113zm339,228l-80,0l-123,-169l-137,0l0,169l-64,0l0,-400l230,0c132,0 159,63 159,116c0,73 -57,105 -112,113l127,172l0,-1z" class="fil11"/>
   <polygon fill="#564f89" fill-rule="nonzero" id="polygon97" points="2817,343.98455810546875 2752,343.98455810546875 2752,743.9845581054688 2817,743.9845581054688 " class="fil11"/>
   <polygon fill="#564f89" fill-rule="nonzero" id="polygon99" points="2960,417.98455810546875 2960,743.9845581054688 2898,743.9845581054688 2898,343.98455810546875 2977,343.98455810546875 3248,643.9845581054688 3248,343.98455810546875 3312,343.98455810546875 3312,743.9845581054688 3253,743.9845581054688 " class="fil11"/>
   <path fill="#564f89" fill-rule="nonzero" id="path101" d="m3595,753.98456c-140,0 -227,-80 -227,-209c0,-130 87,-210 226,-210c99,0 176,43 208,115l4,8l-56,26l-4,-9c-29,-69 -98,-83 -151,-83c-104,0 -162,56 -162,159c0,90 62,144 166,144c70,0 121,-29 152,-85l4,-8l57,28l-4,8c-40,78 -110,116 -213,116z" class="fil11"/>
   <polygon fill="#564f89" fill-rule="nonzero" id="polygon103" points="3860,343.98455810546875 4218,343.98455810546875 4218,402.98455810546875 3925,402.98455810546875 3925,506.98455810546875 4170,506.98455810546875 4170,565.9845581054688 3925,565.9845581054688 3925,684.9845581054688 4225,684.9845581054688 4225,743.9845581054688 3860,743.9845581054688 " class="fil11"/>
   <path fill="#564f89" fill-rule="nonzero" id="path105" d="m4609,743.98456l-347,0l0,-46l1,-2c9,-18 38,-74 140,-125c18,-9 36,-17 51,-24c60,-27 93,-42 93,-89c0,-40 -40,-66 -100,-66c-81,0 -110,40 -126,75l-4,8l-53,-25l3,-8c6,-18 43,-108 175,-108c106,0 168,44 168,121c0,85 -64,113 -126,140l-3,1c-60,27 -105,46 -143,90l272,0l0,57l-1,1z" class="fil11"/>
   <path fill="#564f89" fill-rule="nonzero" id="path107" d="m3400,888.98456l0,17l8,0c4,0 8,-1 10,-2c2,-1 3,-3 3,-6c0,-3 -1,-5 -3,-7c-2,-1 -5,-2 -10,-2l-7,0l-1,0zm-12,-7l21,0c8,0 13,1 17,4c4,3 6,6 6,11c0,4 -1,7 -3,10c-2,3 -5,4 -9,5l12,25l-13,0l-11,-23l-9,0l0,23l-12,0l0,-55l1,0zm20,-13c-6,0 -11,1 -16,3c-5,2 -9,5 -13,9c-4,4 -7,9 -9,14c-2,5 -3,10 -3,16c0,5 1,11 3,16c2,5 5,9 9,13c4,4 8,7 13,9c5,2 10,3 15,3c6,0 11,-1 16,-3c5,-2 10,-5 14,-9c4,-4 7,-8 9,-13c2,-5 3,-10 3,-16c0,-6 -1,-11 -3,-16c-2,-5 -5,-10 -9,-13c-4,-4 -9,-7 -14,-9c-5,-2 -10,-3 -16,-3l1,-1zm0,-7c7,0 13,1 19,4c6,2 11,6 16,11c5,5 8,10 10,16c2,6 4,12 4,19c0,7 -1,13 -4,19c-2,6 -6,11 -11,16c-5,5 -10,8 -16,11c-6,2 -12,4 -18,4c-6,0 -13,-1 -19,-4c-6,-3 -11,-6 -16,-11c-5,-5 -8,-10 -11,-16c-2,-6 -4,-12 -4,-18c0,-6 1,-13 4,-19c3,-6 6,-11 11,-16c5,-5 10,-8 15,-10c6,-2 12,-3 19,-3l1,-3z" class="fil11"/>
   <path fill="#564f89" fill-rule="nonzero" id="path109" d="m1088,1593.98456l-18,-63l-18,63l36,0zm-34,-88l33,0l43,141l-27,0l-9,-31l-49,0l-9,31l-25,0l43,-141z" class="fil11"/>
   <path fill="#564f89" fill-rule="nonzero" id="path111" d="m1245,1611.98456c-7,24 -25,38 -52,38c-37,0 -56,-25 -56,-72c0,-47 21,-73 57,-73c25,0 42,13 48,37l-25,6c-4,-14 -12,-21 -25,-21c-19,0 -29,17 -29,51c0,33 9,49 29,49c13,0 23,-8 27,-21l25,7l1,-1z" class="fil11"/>
   <path fill="#564f89" fill-rule="nonzero" id="path113" d="m1366,1611.98456c-7,24 -25,38 -52,38c-37,0 -56,-25 -56,-72c0,-47 21,-73 57,-73c25,0 42,13 48,37l-25,6c-3,-14 -12,-21 -25,-21c-19,0 -29,17 -29,51c0,33 9,49 29,49c13,0 23,-8 27,-21l25,7l1,-1z" class="fil11"/>
   <path fill="#564f89" fill-rule="nonzero" id="path115" d="m1436,1567.98456c17,0 25,-6 25,-20c0,-14 -8,-20 -25,-20l-23,0l0,39l23,0l0,1zm-49,-62l48,0c36,0 53,13 53,42c0,18 -9,31 -26,36l31,63l-29,0l-27,-57l-24,0l0,57l-26,0l0,-141z" class="fil11"/>
   <polygon fill="#564f89" fill-rule="nonzero" id="polygon117" points="1609,1528.9845581054688 1543,1528.9845581054688 1543,1561.9845581054688 1591,1561.9845581054688 1591,1584.9845581054688 1543,1584.9845581054688 1543,1622.9845581054688 1612,1622.9845581054688 1612,1646.9845581054688 1517,1646.9845581054688 1517,1505.9845581054688 1609,1505.9845581054688 " class="fil11"/>
   <path fill="#564f89" fill-rule="nonzero" id="path119" d="m1675,1623.98456c29,0 41,-14 41,-48c0,-32 -13,-47 -42,-47l-14,0l0,95l15,0zm-41,-118l43,0c44,0 66,24 66,70c0,47 -23,71 -67,71l-42,0l0,-141z" class="fil11"/>
   <polygon fill="#564f89" fill-rule="nonzero" id="polygon121" points="1796,1505.9845581054688 1769,1505.9845581054688 1769,1646.9845581054688 1796,1646.9845581054688 " class="fil11"/>
   <polygon fill="#564f89" fill-rule="nonzero" id="polygon123" points="1819,1505.9845581054688 1920,1505.9845581054688 1920,1528.9845581054688 1883,1528.9845581054688 1883,1646.9845581054688 1856,1646.9845581054688 1856,1528.9845581054688 1819,1528.9845581054688 " class="fil11"/>
   <polygon fill="#564f89" fill-rule="nonzero" id="polygon125" points="2032,1528.9845581054688 1967,1528.9845581054688 1967,1561.9845581054688 2014,1561.9845581054688 2014,1584.9845581054688 1967,1584.9845581054688 1967,1622.9845581054688 2035,1622.9845581054688 2035,1646.9845581054688 1940,1646.9845581054688 1940,1505.9845581054688 2032,1505.9845581054688 " class="fil11"/>
   <path fill="#564f89" fill-rule="nonzero" id="path127" d="m2098,1623.98456c29,0 41,-14 41,-48c0,-32 -13,-47 -42,-47l-14,0l0,95l15,0zm-41,-118l43,0c44,0 66,24 66,70c0,47 -23,71 -67,71l-42,0l0,-141z" class="fil11"/>
   <polygon fill="#564f89" fill-rule="nonzero" id="polygon129" points="2236,1505.9845581054688 2338,1505.9845581054688 2338,1528.9845581054688 2300,1528.9845581054688 2300,1646.9845581054688 2274,1646.9845581054688 2274,1528.9845581054688 2236,1528.9845581054688 " class="fil11"/>
   <path fill="#564f89" fill-rule="nonzero" id="path131" d="m2406,1567.98456c17,0 25,-6 25,-20c0,-14 -8,-20 -25,-20l-23,0l0,39l23,0l0,1zm-49,-62l48,0c36,0 53,13 53,42c0,18 -9,31 -26,36l31,63l-29,0l-27,-57l-24,0l0,57l-26,0l0,-141z" class="fil11"/>
   <path fill="#564f89" fill-rule="nonzero" id="path133" d="m2549,1593.98456l-18,-63l-18,63l36,0zm-34,-88l33,0l43,141l-27,0l-9,-31l-49,0l-9,31l-25,0l43,-141z" class="fil11"/>
   <polygon fill="#564f89" fill-rule="nonzero" id="polygon135" points="2636,1505.9845581054688 2610,1505.9845581054688 2610,1646.9845581054688 2636,1646.9845581054688 " class="fil11"/>
   <path fill="#564f89" fill-rule="nonzero" id="path137" d="m2670,1505.98456l28,0l41,71c6,10 11,22 16,34c-1,-9 -2,-18 -2,-29l0,-76l25,0l0,141l-25,0l-44,-73c-4,-8 -10,-19 -16,-34c1,9 2,18 2,29l0,78l-25,0l0,-141z" class="fil11"/>
   <polygon fill="#564f89" fill-rule="nonzero" id="polygon139" points="2839,1505.9845581054688 2812,1505.9845581054688 2812,1646.9845581054688 2839,1646.9845581054688 " class="fil11"/>
   <path fill="#564f89" fill-rule="nonzero" id="path141" d="m2873,1505.98456l28,0l41,71c6,10 11,22 16,34c-1,-9 -2,-18 -2,-29l0,-76l25,0l0,141l-25,0l-44,-73c-4,-8 -10,-19 -16,-34c1,9 2,18 2,29l0,78l-25,0l0,-141z" class="fil11"/>
   <path fill="#564f89" fill-rule="nonzero" id="path143" d="m3094,1632.98456c-9,12 -21,17 -37,17c-33,0 -54,-27 -54,-75c0,-45 22,-71 59,-71c25,0 43,13 50,36l-24,6c-6,-13 -14,-20 -26,-20c-20,0 -31,17 -31,50c0,32 11,50 30,50c15,0 26,-11 28,-29l-26,0l0,-22l53,0l0,72l-19,0l-1,-15l-2,1z" class="fil11"/>
   <path fill="#564f89" fill-rule="nonzero" id="path145" d="m3250,1625.98456c21,0 32,-17 32,-49c0,-32 -11,-49 -32,-49c-21,0 -32,17 -32,49c0,32 11,49 32,49zm0,-122c36,0 59,27 59,73c0,46 -23,73 -59,73c-36,0 -59,-27 -59,-73c0,-46 22,-73 59,-73z" class="fil11"/>
   <path fill="#564f89" fill-rule="nonzero" id="path147" d="m3381,1567.98456c17,0 25,-6 25,-20c0,-14 -8,-20 -25,-20l-23,0l0,39l23,0l0,1zm-49,-62l48,0c36,0 53,13 53,42c0,18 -9,31 -26,36l31,63l-29,0l-27,-57l-24,0l0,57l-26,0l0,-141z" class="fil11"/>
   <path fill="#564f89" fill-rule="nonzero" id="path149" d="m3544,1632.98456c-9,12 -21,17 -37,17c-33,0 -54,-27 -54,-75c0,-45 22,-71 59,-71c25,0 43,13 50,36l-24,6c-6,-13 -14,-20 -26,-20c-20,0 -31,17 -31,50c0,32 11,50 30,50c15,0 26,-11 28,-29l-26,0l0,-22l53,0l0,72l-19,0l-1,-15l-2,1z" class="fil11"/>
   <path fill="#564f89" fill-rule="nonzero" id="path151" d="m3654,1593.98456l-18,-63l-18,63l36,0zm-34,-88l33,0l43,141l-27,0l-9,-31l-49,0l-9,31l-25,0l43,-141z" class="fil11"/>
   <path fill="#564f89" fill-rule="nonzero" id="path153" d="m3711,1505.98456l28,0l41,71c6,10 11,22 16,34c-1,-9 -2,-18 -2,-29l0,-76l25,0l0,141l-25,0l-44,-73c-4,-8 -10,-19 -16,-34c1,9 2,18 2,29l0,78l-25,0l0,-141z" class="fil11"/>
   <polygon fill="#564f89" fill-rule="nonzero" id="polygon155" points="3880,1505.9845581054688 3853,1505.9845581054688 3853,1646.9845581054688 3880,1646.9845581054688 " class="fil11"/>
   <polygon fill="#564f89" fill-rule="nonzero" id="polygon157" points="3906,1528.9845581054688 3906,1505.9845581054688 3999,1505.9845581054688 3999,1527.9845581054688 3930,1623.9845581054688 4000,1623.9845581054688 4000,1646.9845581054688 3901,1646.9845581054688 3901,1623.9845581054688 3970,1528.9845581054688 " class="fil11"/>
   <path fill="#564f89" fill-rule="nonzero" id="path159" d="m4082,1593.98456l-18,-63l-18,63l36,0zm-34,-88l33,0l43,141l-27,0l-9,-31l-49,0l-9,31l-25,0l43,-141z" class="fil11"/>
   <polygon fill="#564f89" fill-rule="nonzero" id="polygon161" points="4115,1505.9845581054688 4216,1505.9845581054688 4216,1528.9845581054688 4179,1528.9845581054688 4179,1646.9845581054688 4152,1646.9845581054688 4152,1528.9845581054688 4115,1528.9845581054688 " class="fil11"/>
   <polygon fill="#564f89" fill-rule="nonzero" id="polygon163" points="4265,1505.9845581054688 4239,1505.9845581054688 4239,1646.9845581054688 4265,1646.9845581054688 " class="fil11"/>
   <path fill="#564f89" fill-rule="nonzero" id="path165" d="m4350,1625.98456c21,0 32,-17 32,-49c0,-32 -11,-49 -32,-49c-21,0 -32,17 -32,49c0,32 11,49 32,49zm0,-122c36,0 59,27 59,73c0,46 -23,73 -59,73c-36,0 -59,-27 -59,-73c0,-46 22,-73 59,-73z" class="fil11"/>
   <path fill="#564f89" fill-rule="nonzero" id="path167" d="m4431,1505.98456l28,0l41,71c6,10 11,22 16,34c-1,-9 -2,-18 -2,-29l0,-76l25,0l0,141l-25,0l-44,-73c-4,-8 -10,-19 -16,-34c1,9 2,18 2,29l0,78l-25,0l0,-141z" class="fil11"/>
  </g>
 </g>
</svg>